<svg xmlns="http://www.w3.org/2000/svg" width="85" height="85" viewBox="0 0 85 85">
    <g fill="none" fill-rule="evenodd">
        <g>
            <g transform="translate(-757 -209) translate(757 209)">
                <circle cx="42.5" cy="42.5" r="42.5" fill="#FFF"/>
                <g>
                    <path fill="#35B0CB" fill-rule="nonzero" d="M24.419 17.647v-6.806l-.16.058c-.626.198-1.28.29-1.937.272V9.953c1.333-.03 2.128-.565 2.356-1.6h1.163v9.302l-1.422-.008zM5.302 25.69c0-.637.177-1.261.512-1.802.204-.297.438-.572.698-.822.302-.302.686-.644 1.135-1.02.45-.375.748-.627 1.027-.883.25-.221.48-.464.686-.725.165-.208.295-.441.388-.69.077-.24.114-.492.112-.744.038-.383-.097-.762-.37-1.034-.27-.271-.65-.407-1.033-.37-.187 0-.372.04-.542.117-.177.077-.333.194-.458.341-.137.167-.246.356-.321.558-.078.21-.126.429-.144.651H5.5c.036-.386.13-.765.28-1.124.144-.352.356-.674.623-.945.26-.26.57-.463.911-.601.37-.144.765-.216 1.163-.213.418-.007.835.063 1.228.205.335.12.64.311.896.558.24.235.428.52.55.834.13.333.194.688.19 1.046.003.325-.043.65-.136.961-.095.3-.235.583-.414.841-.233.32-.492.617-.775.892-.353.349-.776.748-1.307 1.186-.305.258-.563.495-.775.71-.178.158-.346.328-.504.507l-.163.19h4.124v1.376H5.302zM41.655 25.841c-.397.002-.791-.069-1.163-.21-.346-.132-.66-.334-.926-.592-.268-.263-.48-.576-.624-.923-.144-.345-.231-.712-.26-1.085h1.504c.011.18.042.358.093.531.058.2.156.385.287.547.125.162.286.294.469.387.2.096.418.144.64.14.218.002.435-.041.635-.128.185-.082.351-.2.488-.35.137-.155.241-.337.307-.534.071-.215.107-.44.104-.667.026-.432-.133-.855-.438-1.162-.359-.283-.811-.421-1.267-.388h-.597v-1.21h.422c.946 0 1.446-.468 1.446-1.352.022-.329-.088-.652-.306-.9-.234-.222-.55-.337-.872-.317-.752 0-1.194.473-1.318 1.4h-1.52c.045-.368.146-.726.3-1.063.145-.322.352-.613.608-.856.243-.23.53-.406.845-.52.329-.12.677-.18 1.027-.178.38-.006.758.057 1.116.186.312.11.6.282.845.504.233.217.418.481.543.775.126.314.19.65.186.988 0 .32-.067.638-.198.93-.138.305-.348.571-.612.776l-.14.108.159.086c.388.195.708.505.915.887.214.402.323.851.318 1.306.002.4-.077.795-.233 1.163-.15.346-.367.659-.64.919-.277.26-.602.463-.957.6-.38.138-.782.207-1.186.202z" transform="translate(18 14)"/>
                    <path stroke="#344154" stroke-width="1.163" d="M19.202 22.984H30.79c1.398 0 2.53 1.134 2.53 2.532v17.992H16.656V25.519c-.001-.674.267-1.321.745-1.797.479-.476 1.127-.742 1.802-.738zM33.337 31.457h14.12c1.398 0 2.531 1.134 2.531 2.531v9.516H33.322v-12.05l.015.003z" transform="translate(18 14)"/>
                    <path stroke="#344154" stroke-width="1.163" d="M33.337 31.457h14.12c1.398 0 2.531 1.134 2.531 2.531v9.516H33.322v-12.05l.015.003zM2.531 31.457h14.136v12.05H0v-9.515c-.001-.672.265-1.316.74-1.792.475-.475 1.12-.743 1.791-.743zM25 3.539L25 0M21.802 4.233L20.391 1M19.155 6.198L16.581 3.829M30.849 6.198L33.422 3.829M28.202 4.233L29.612 1" transform="translate(18 14)"/>
                    <path fill="#FF6D3B" fill-rule="nonzero" d="M19.132 35.91v5.086h11.736V27.771s-3.213 8.043-11.736 8.14z" transform="translate(18 14)"/>
                </g>
            </g>
        </g>
    </g>
</svg>
