<svg xmlns="http://www.w3.org/2000/svg" width="85" height="85" viewBox="0 0 85 85">
    <g fill="none" fill-rule="evenodd">
        <g>
            <g transform="translate(-457 -989) translate(457 989)">
                <circle cx="42.5" cy="42.5" r="42.5" fill="#FFF"/>
                <g>
                    <path stroke="#344154" stroke-linecap="round" stroke-width="1.172" d="M22.2.4L.593 7.2c-.332.117-.554.43-.554.782 0 .351.222.664.554.78l21.605 6.798c1.712.535 3.546.535 5.258 0l21.605-6.797c.332-.117.554-.43.554-.781 0-.352-.222-.665-.553-.782L27.456.403C25.746-.133 23.911-.134 22.199.4h0z" transform="translate(18 21)"/>
                    <path fill="#35B0CB" fill-rule="nonzero" d="M21.574 4.005c-.633-.198-1.29-.307-1.953-.324l3.281-1.035c1.252-.391 2.593-.391 3.844 0L43.72 7.982l-4.746 1.492-17.399-5.469z" transform="translate(18 21)"/>
                    <path stroke="#344154" stroke-linecap="round" stroke-width="1.172" d="M40.89 11.497v14.938c0 .972-.568 1.854-1.453 2.257-9.285 4.211-19.936 4.211-29.222 0-.884-.403-1.45-1.286-1.45-2.257V11.497" transform="translate(18 21)"/>
                    <path stroke="#FF6D3B" stroke-linecap="round" stroke-width="1.172" d="M2.555 9.7L2.555 30.083M4.734 32.267c0-1.204-.976-2.18-2.18-2.18-1.203 0-2.179.976-2.179 2.18 0 1.203.976 2.18 2.18 2.18 1.203 0 2.18-.977 2.18-2.18zM1.383 36.552C.514 38.304.043 40.226 0 42.18h5.102c-.043-1.955-.514-3.876-1.38-5.63" transform="translate(18 21)"/>
                </g>
            </g>
        </g>
    </g>
</svg>
