<svg xmlns="http://www.w3.org/2000/svg" width="85" height="85" viewBox="0 0 85 85">
    <g fill="none" fill-rule="evenodd">
        <g>
            <g transform="translate(-757 -729) translate(757 729)">
                <circle cx="42.5" cy="42.5" r="42.5" fill="#FFF"/>
                <g>
                    <path stroke="#344154" stroke-linecap="round" stroke-linejoin="round" stroke-width="1.406" d="M52.732.061c-16.757-.89-22.837 8.26-22.837 8.26v29.418s8.184-7.162 25.425-6.998L52.732.06zM7.062.061c16.753-.89 22.833 8.26 22.833 8.26v29.418S21.71 30.577 4.47 30.741L7.062.06z" transform="translate(13 20)"/>
                    <path stroke="#35B0CB" stroke-linecap="round" stroke-linejoin="round" stroke-width="1.406" d="M53.056 3.858c.72-.265 1.482-.396 2.25-.39 1.119-.048 2.076.797 2.165 1.913l2.283 27.31c.053.628-.18 1.247-.635 1.684-.455.436-1.083.644-1.708.566-3.685-.469-11.1-.605-20.743 3.408-.084.255-.188.504-.309.745-2.602 5.362-10.35 5.362-12.956 0-.121-.24-.225-.49-.31-.745-9.642-4.013-17.057-3.882-20.742-3.408-.626.078-1.253-.13-1.708-.566-.455-.437-.689-1.056-.636-1.684L2.29 5.38C2.38 4.265 3.337 3.42 4.456 3.47c.767-.007 1.53.124 2.25.389" transform="translate(13 20)"/>
                    <path fill="#FF6D3B" fill-rule="nonzero" d="M27.082 9.295C25.578 7.594 20.46 2.906 9.65 2.817l-.736 8.719s4.992-6.234 18.168-2.24z" transform="translate(13 20)"/>
                </g>
            </g>
        </g>
    </g>
</svg>
