<svg xmlns="http://www.w3.org/2000/svg" width="85" height="85" viewBox="0 0 85 85">
    <g fill="none" fill-rule="evenodd">
        <g>
            <g transform="translate(-1057 -729) translate(1057 729)">
                <circle cx="42.5" cy="42.5" r="42.5" fill="#FFF"/>
                <g>
                    <path stroke="#344154" stroke-width="1.154" d="M34.808 37.588V.177H22.254v25.52l-7.27-6.416-7.269 6.415V.176H3.296C1.476.18 0 1.657 0 3.477v41.24c0 1.82 1.475 3.297 3.296 3.3h31.512V37.587z" transform="translate(25 17)"/>
                    <path stroke="#344154" stroke-linecap="round" stroke-width="1.154" d="M22.258 0.192L16.346 0.192" transform="translate(25 17)"/>
                    <path stroke="#35B0CB" stroke-linecap="round" stroke-width="1.154" d="M31.169 37.758L31.169 44.385 24.538 44.385" transform="translate(25 17)"/>
                    <path fill="#FF6D3B" fill-rule="nonzero" d="M19.692 9.092v10.939l-4.707-4.154-4.708 4.154V2.754s2.758 6.338 9.415 6.338z" transform="translate(25 17)"/>
                </g>
            </g>
        </g>
    </g>
</svg>
