<svg xmlns="http://www.w3.org/2000/svg" width="85" height="85" viewBox="0 0 85 85">
    <g fill="none" fill-rule="evenodd">
        <g>
            <g transform="translate(-157 -989) translate(157 989)">
                <circle cx="42.5" cy="42.5" r="42.5" fill="#FFF"/>
                <g>
                    <path stroke="#344154" stroke-linecap="round" stroke-linejoin="round" d="M9.593 40.573h0c0 .737-.597 1.334-1.333 1.334H4.887c-1.073-.002-1.959-.84-2.02-1.91L0 23.89h13.913l.49-3.023c.207-1.4.387-2.834.534-4.28.25-2.45-.87-4.17-2.907-5.56h0C10.501 9.983 9.587 8.25 9.587 6.4h0c-.01-2.24 1.324-4.268 3.386-5.143 4.414-1.676 9.29-1.676 13.704 0 2.06.877 3.393 2.904 3.383 5.143h0c.001 1.851-.914 3.584-2.443 4.627h0c-2.034 1.39-3.157 3.11-2.907 5.56.15 1.466.333 2.916.543 4.333l.48 2.967h14.24l-3.153 16.12c-.06 1.071-.947 1.91-2.02 1.91h-3.367c-.736 0-1.333-.597-1.333-1.334h0" transform="translate(23 22)"/>
                    <path stroke="#35B0CB" stroke-linecap="round" stroke-linejoin="round" d="M26.56 6.55c.014-1.033-.597-1.973-1.547-2.38-3.346-1.249-7.03-1.249-10.376 0-.95.407-1.562 1.346-1.55 2.38" transform="translate(23 22)"/>
                    <path stroke="#344154" d="M14.53 19.983H3.233c-.806 0-1.542.46-1.896 1.184L.003 23.9M25.117 19.983H36.74c.806 0 1.543.46 1.897 1.184L39.97 23.9M25.733 23.9c.851 4.78 1.964 9.51 3.334 14.167.08.273.028.57-.143.798-.17.229-.439.364-.724.365h0c-.92 0-1.776.466-2.277 1.237h0c-.583.907-1.588 1.453-2.666 1.45h-6.864c-1.078.002-2.083-.544-2.666-1.45h0c-.5-.771-1.355-1.237-2.274-1.237h0c-.286 0-.555-.135-.726-.364-.171-.229-.225-.525-.144-.8 1.37-4.657 2.483-9.386 3.334-14.166" transform="translate(23 22)"/>
                    <path fill="#FF6D3B" fill-rule="nonzero" d="M35.267 37.497l2.263-11.584h-9.377s6.13 2.787 7.114 11.584zM4.707 37.497L2.443 25.913h9.377S5.69 28.7 4.707 37.497z" transform="translate(23 22)"/>
                </g>
            </g>
        </g>
    </g>
</svg>
