<svg xmlns="http://www.w3.org/2000/svg" width="85" height="85" viewBox="0 0 85 85">
    <g fill="none" fill-rule="evenodd">
        <g>
            <g transform="translate(-757 -469) translate(757 469)">
                <circle cx="42.5" cy="42.5" r="42.5" fill="#FFF"/>
                <g>
                    <path fill="#35B0CB" fill-rule="nonzero" d="M26.529 31.69c-.132-.04-.258-.098-.374-.172h-.078l-6.113 6.475-4.082-4.33-2.063-2.142h-.038c-.115.076-.241.134-.374.172l-3.906 1.122 10.467 10.677 10.467-10.67-3.906-1.132z" transform="translate(23 16)"/>
                    <path stroke="#FF6D3B" stroke-linecap="round" stroke-width="1.121" d="M28.948 12.292c-2.617 1.203-6.004 1.801-9.036 1.801s-6.434-.598-9.035-1.801" transform="translate(23 16)"/>
                    <path stroke="#344154" stroke-linecap="round" stroke-width="1.121" d="M29.411 15.615c1.028.292 1.772 1.518 1.772 3.028 0 1.66-.908 2.99-2.09 3.084-.596 2.408-1.964 4.554-3.895 6.112l.303 2.617c.048.42.277.797.628 1.032.125.083.26.147.404.19l6.609 1.922c.959.24 1.847.706 2.59 1.357 1.353 1.117 2.278 2.668 2.617 4.389l1.552 7.768c.023.11-.005.223-.075.31-.072.087-.179.136-.291.135H.372c-.112 0-.217-.052-.288-.138-.072-.085-.1-.199-.075-.307l1.555-7.768c.343-1.72 1.267-3.27 2.617-4.389.745-.649 1.633-1.113 2.59-1.353l6.64-1.914c.143-.042.28-.105.404-.187.35-.235.58-.613.628-1.032l.303-2.617c-1.928-1.56-3.293-3.708-3.888-6.116-1.185-.108-2.086-1.424-2.086-3.088 0-1.495.748-2.732 1.772-3.024M10.873 12.292c-.238 1.092-.348 2.209-.33 3.327M29.262 15.615c.022-1.114-.084-2.226-.314-3.316M13.815 31.499L19.92 37.836M26.032 31.507L19.92 37.836" transform="translate(23 16)"/>
                    <path stroke="#FF6D3B" stroke-linecap="round" stroke-width="1.121" d="M28.951 12.295L28.951 6.25M10.88 6.247L10.877 12.288" transform="translate(23 16)"/>
                    <path stroke="#FF6D3B" stroke-linecap="round" stroke-linejoin="round" stroke-width="1.121" d="M19.983 0L34.959 4.015 19.916 8.55 19.916 8.55 4.877 4.004 19.983 0M34.955 6.355L34.955 11.611" transform="translate(23 16)"/>
                    <path stroke="#344154" stroke-linecap="round" stroke-width="1.121" d="M27.247 42.004L33.015 42.007" transform="translate(23 16)"/>
                    <path stroke="#FF6D3B" stroke-linecap="round" stroke-linejoin="round" stroke-width="1.121" d="M36.271 13.222c-.727.713-1.89.713-2.617 0" transform="translate(23 16)"/>
                </g>
            </g>
        </g>
    </g>
</svg>
