<svg xmlns="http://www.w3.org/2000/svg" width="85" height="85" viewBox="0 0 85 85">
    <g fill="none" fill-rule="evenodd">
        <g>
            <g transform="translate(-457 -209) translate(457 209)">
                <circle cx="42.5" cy="42.5" r="42.5" fill="#FFF"/>
                <path stroke="#344154" stroke-linecap="round" stroke-width="1.286" d="M31.449 56.204c0-2.65-2.15-4.8-4.8-4.8-2.651 0-4.8 2.15-4.8 4.8 0 2.651 2.149 4.8 4.8 4.8 1.273.001 2.495-.504 3.395-1.404.9-.9 1.406-2.122 1.405-3.396h0z"/>
                <path stroke="#344154" stroke-linecap="round" stroke-width="1.286" d="M27.103 56.204c0-.183-.11-.35-.28-.42-.17-.07-.366-.03-.496.1-.13.129-.168.324-.098.494.07.17.236.28.42.28.12.002.237-.046.322-.131.086-.086.133-.202.132-.323h0zM56.953 56.204c0-.183-.11-.35-.28-.42-.17-.07-.366-.03-.496.1-.13.129-.168.324-.098.494.07.17.236.28.42.28.12.002.237-.046.322-.131.086-.086.133-.202.132-.323h0z"/>
                <path stroke="#344154" stroke-linecap="round" stroke-width="1.286" d="M61.32 56.204c0-2.65-2.149-4.8-4.8-4.8s-4.8 2.15-4.8 4.8c0 2.651 2.149 4.8 4.8 4.8 1.273.001 2.495-.504 3.395-1.404.9-.9 1.406-2.122 1.405-3.396h0zM31.35 57.181L51.703 57.181M21.951 57.181h-5.104c-2.677 0-4.847-2.17-4.847-4.847V47.26c0-1.81 1.468-3.279 3.279-3.279V35.75M15.279 35.749L15.279 43.981 15.279 43.981"/>
                <rect width="12.634" height="8.233" x="32.803" y="35.749" stroke="#35B0CB" stroke-linecap="round" stroke-width="1.286" rx="1.187"/>
                <rect width="12.634" height="8.233" x="15.803" y="35.749" stroke="#35B0CB" stroke-linecap="round" stroke-width="1.286" rx="1.187"/>
                <rect width="12.634" height="8.233" x="50.357" y="35.749" stroke="#35B0CB" stroke-linecap="round" stroke-width="1.286" rx="1.187"/>
                <path stroke="#344154" stroke-linecap="round" stroke-width="1.286" d="M15.279 35.749v-7.115c0-3.664 2.97-6.634 6.634-6.634h41.434c3.664 0 6.634 2.97 6.634 6.634V53.36h0c.9 0 1.63.728 1.633 1.628v.583c-.002.9-.732 1.629-1.633 1.629H61.2M69.986 53.337L66.407 53.337"/>
                <path fill="#FF6D3B" fill-rule="nonzero" d="M21.913 24.687c-2.177.005-3.94 1.77-3.943 3.947v2.032h27.759c.693-2.23 1.88-4.274 3.475-5.979H21.913z"/>
            </g>
        </g>
    </g>
</svg>
