<svg xmlns="http://www.w3.org/2000/svg" width="85" height="85" viewBox="0 0 85 85">
    <g fill="none" fill-rule="evenodd">
        <g>
            <g transform="translate(-157 -209) translate(157 209)">
                <circle cx="42.5" cy="42.5" r="42.5" fill="#FFF"/>
                <g>
                    <path stroke="#2F3945" stroke-linecap="round" stroke-linejoin="round" stroke-width="1.19" d="M10.766 48.9H2.004C.897 48.9 0 48.004 0 46.897V5.145C0 4.58.456 4.12 1.024 4.12h10.722c.564 0 1.024.459 1.024 1.024v41.75c0 1.108-.897 2.006-2.004 2.006zM2.512 33.685h7.746-7.746zm0 4.278h7.746-7.746z" transform="translate(18 18)"/>
                    <path fill="#3FA7BA" d="M5.917 44.168h.928l-.452-1.728h-.024l-.452 1.728zm1.146.83H5.698l-.305 1.179h-1.1l1.544-5.447h1.096l1.543 5.447H7.373l-.31-1.178z" transform="translate(18 18)"/>
                    <path stroke="#2F3945" stroke-linecap="round" stroke-linejoin="round" stroke-width="1.19" d="M29.254 44.78h-8.758c-1.107 0-2.004-.899-2.004-2.006V1.024c0-.566.456-1.024 1.024-1.024h10.722c.564 0 1.024.458 1.024 1.023v41.75c0 1.108-.9 2.006-2.008 2.006zm-8.25-15.218h7.746-7.746zm0 4.278h7.746-7.746z" transform="translate(18 18)"/>
                    <path fill="#3FA7BA" d="M24.143 39.642v1.59h.77c.23 0 .404-.064.52-.192.119-.129.174-.319.174-.571 0-.26-.051-.46-.159-.602-.107-.142-.273-.217-.5-.225h-.805zm0-.73h.551c.23-.004.401-.068.52-.19.123-.122.183-.299.183-.532 0-.258-.064-.45-.187-.572-.127-.122-.313-.183-.563-.183h-.504v1.478zm-1.056 3.144v-5.448h1.56c.567 0 1.012.125 1.33.373.317.248.475.619.475 1.113 0 .257-.06.485-.174.686-.12.2-.29.35-.516.447.305.062.532.209.678.438.151.23.223.497.223.804 0 .521-.151.916-.453 1.184-.305.268-.738.403-1.297.403h-1.826z" transform="translate(18 18)"/>
                    <path stroke="#2F3945" stroke-linecap="round" stroke-linejoin="round" stroke-width="1.19" d="M47.746 48.9h-8.758c-1.107 0-2.008-.897-2.008-2.004V5.145c0-.565.46-1.024 1.024-1.024h10.722c.568 0 1.024.459 1.024 1.024v41.75c0 1.108-.897 2.006-2.004 2.006zm-8.254-15.216h7.746-7.746zm0 4.278h7.746-7.746z" transform="translate(18 18)"/>
                    <path fill="#3FA7BA" d="M45.194 44.486l.008.022c.008.584-.139 1.021-.448 1.312-.31.29-.746.436-1.317.436-.588 0-1.052-.173-1.397-.518-.346-.346-.516-.837-.516-1.473V42.65c0-.633.166-1.124.5-1.474.333-.349.782-.524 1.349-.524.595 0 1.052.145 1.373.434.317.29.472.727.464 1.313l-.008.023h-1.027c0-.35-.06-.594-.183-.733-.123-.14-.33-.21-.619-.21-.266 0-.464.095-.595.286-.135.19-.199.484-.199.877v1.624c0 .397.072.69.215.881.139.19.353.287.643.287.261 0 .448-.07.563-.208.115-.138.17-.385.17-.739h1.024" transform="translate(18 18)"/>
                </g>
                <circle cx="43" cy="26" r="3" fill="#FF6D3B"/>
                <circle cx="24" cy="30" r="3" fill="#FF6D3B"/>
                <circle cx="62" cy="30" r="3" fill="#FF6D3B"/>
            </g>
        </g>
    </g>
</svg>
