<svg version="1.2" baseProfile="tiny-ps" xmlns="http://www.w3.org/2000/svg" viewBox="0 0 62 55" width="62" height="55">
	<title>ic-hocbong-svg</title>
	<style>
		tspan { white-space:pre }
		.shp0 { fill: none;stroke: #344154;stroke-linecap:round;stroke-width: 1.277 } 
		.shp1 { fill: none;stroke: #344154;stroke-linecap:round;stroke-linejoin:round;stroke-width: 1.277 } 
		.shp2 { fill: none;stroke: #35b0cb;stroke-width: 1.277 } 
	</style>
	<g id="Layer">
		<g id="Layer">
			<g id="Layer">
				<path id="Layer" class="shp0" d="M28.42 43.11L27.39 39.46C26.45 36.17 24.13 33.44 21.02 32L18.46 30.81C16.95 30.11 15.81 28.78 15.36 27.17L14.12 22.8L14.21 22.06C14.41 20.59 13.72 19.14 12.46 18.36L12.4 18.32" />
				<path id="Layer" class="shp0" d="M15.8 35.83C15.61 35.86 15.43 35.88 15.26 35.89C12.31 36.15 9.43 34.81 7.61 32.47C3.86 27.67 1 30.67 1 30.67C1 30.67 4.1 34.38 6.21 38.04C7.71 40.66 10.15 42.64 13.07 43.37C13.25 43.42 13.44 43.46 13.63 43.5C15.55 43.89 17.14 45.14 18.04 46.83" />
				<path id="Layer" class="shp0" d="M3.8 29.78L2.53 23.94L6.28 12.43C6.28 12.43 8.43 12.97 7.87 16.25L6.17 23.74L7.33 28.48" />
				<path id="Layer" class="shp0" d="M7.63 13.64L8.64 10.53C8.64 10.53 11.43 11.56 10.48 15.27L8.93 23.4L10.17 27.8" />
				<path id="Layer" class="shp0" d="M10.67 13.63L10.81 13.74C12.13 14.7 12.77 16.33 12.47 17.93L11.57 22.74L12.86 27.22" />
				<path id="Layer" class="shp1" d="M27.14 50.77L18.37 53.47L16.01 47.58L28.42 43.11L28.42 46.1" />
				<path id="Layer" class="shp0" d="M17.03 50.12L28.42 46.1" />
				<path id="Layer" class="shp0" d="M33.32 43.11L34.36 39.46C35.29 36.17 37.61 33.44 40.72 32L43.28 30.81C44.8 30.11 45.93 28.78 46.38 27.17L47.63 22.8L47.53 22.06C47.33 20.59 48.02 19.14 49.28 18.36L49.34 18.32" />
				<path id="Layer" class="shp0" d="M45.94 35.83C46.13 35.86 46.31 35.88 46.48 35.89C49.43 36.15 52.31 34.81 54.13 32.47C57.88 27.67 60.74 30.67 60.74 30.67C60.74 30.67 57.64 34.38 55.53 38.04C54.03 40.66 51.59 42.64 48.67 43.37C48.49 43.42 48.3 43.46 48.11 43.5C46.19 43.89 44.6 45.14 43.71 46.83" />
				<path id="Layer" class="shp0" d="M57.94 29.78L59.21 23.94L55.46 12.43C55.46 12.43 53.31 12.97 53.87 16.25L55.57 23.74L54.41 28.48" />
				<path id="Layer" class="shp0" d="M54.11 13.64L53.1 10.53C53.1 10.53 50.31 11.56 51.26 15.27L52.82 23.4L51.57 27.8" />
				<path id="Layer" class="shp0" d="M51.07 13.63L50.92 13.74C49.61 14.7 48.97 16.33 49.27 17.93L50.17 22.74L48.88 27.22" />
				<path id="Layer" class="shp1" d="M34.6 50.77L43.37 53.47L45.73 47.58L33.32 43.11L33.32 46.1" />
				<path id="Layer" class="shp0" d="M44.71 50.12L33.32 46.1" />
				<path id="Layer" class="shp2" d="M43.53 13.63C43.53 6.77 37.97 1.21 31.11 1.21C24.25 1.21 18.69 6.77 18.69 13.63C18.69 20.49 24.25 26.05 31.11 26.05C37.97 26.05 43.53 20.49 43.53 13.63L43.53 13.63Z" />
			</g>
		</g>
	</g>
</svg>