<svg xmlns="http://www.w3.org/2000/svg" width="85" height="85" viewBox="0 0 85 85">
    <g fill="none" fill-rule="evenodd">
        <g>
            <g transform="translate(-457 -729) translate(457 729)">
                <circle cx="42.5" cy="42.5" r="42.5" fill="#FFF"/>
                <g>
                    <path stroke="#344154" stroke-linecap="round" stroke-width="1.181" d="M13.677 30.776H2.85c-.756 0-1.48-.3-2.015-.835C.3 29.406 0 28.68 0 27.925V2.85C0 2.094.3 1.37.835.835 1.369.3 2.095 0 2.85 0h44.044c1.574 0 2.85 1.276 2.85 2.85v25.075c0 1.574-1.276 2.85-2.85 2.85H36.067" transform="translate(18 20)"/>
                    <path stroke="#344154" stroke-width="1.181" d="M32.996 30.724c0-3.283-1.978-6.243-5.011-7.5-3.034-1.256-6.526-.562-8.847 1.76-2.322 2.322-3.017 5.814-1.76 8.847 1.256 3.034 4.216 5.012 7.5 5.012 4.483-.003 8.116-3.636 8.118-8.119z" transform="translate(18 20)"/>
                    <path fill="#FF6D3B" fill-rule="nonzero" d="M25.858 25.457c1.149 1.109 1.61 2.752 1.205 4.296-.405 1.545-1.612 2.751-3.157 3.155-1.545.403-3.187-.058-4.296-1.207.493 2.66 2.893 4.537 5.595 4.372 2.701-.165 4.856-2.318 5.022-5.02.166-2.7-1.708-5.102-4.369-5.596z" transform="translate(18 20)"/>
                    <path stroke="#35B0CB" stroke-linecap="round" stroke-width="1.181" d="M33.02 22.028c-4.497-4.496-11.787-4.496-16.284 0" transform="translate(18 20)"/>
                    <path stroke="#344154" stroke-linecap="round" stroke-width="1.181" d="M27.15 38.689L32.866 44.406 32.866 38.709 38.563 38.709 32.846 32.992M22.606 38.689L16.89 44.406 16.89 38.709 11.193 38.709 16.909 32.992" transform="translate(18 20)"/>
                    <path stroke="#35B0CB" stroke-linecap="round" stroke-width="1.181" d="M35.591 12.843L14.394 12.843M10.642 7.894L39.303 7.894" transform="translate(18 20)"/>
                </g>
            </g>
        </g>
    </g>
</svg>
