<svg xmlns="http://www.w3.org/2000/svg" width="85" height="85" viewBox="0 0 85 85">
    <g fill="none" fill-rule="evenodd">
        <g>
            <g transform="translate(-157 -729) translate(157 729)">
                <circle cx="42.5" cy="42.5" r="42.5" fill="#FFF"/>
                <g>
                    <path stroke="#344154" stroke-width="1.181" d="M49.685 12.323v25.724c0 1.344-1.09 2.433-2.433 2.433H2.433c-.645 0-1.264-.256-1.72-.712C.256 39.31 0 38.693 0 38.048V12.322" transform="translate(18 22)"/>
                    <path stroke="#344154" stroke-linecap="round" stroke-width="1.181" d="M8.504 4.551c-.122.278-.185.579-.185.882 0 1.272 1.031 2.303 2.303 2.303s2.303-1.03 2.303-2.303c0-.303-.063-.603-.18-.882M10.63 5.394L10.63 0M41.181 4.551c.118.28.18.579.181.882 0 1.272-1.031 2.303-2.303 2.303s-2.303-1.03-2.303-2.303c0-.303.063-.604.185-.882M39.055 5.394L39.055 0M36.512 1.496L13.177 1.496" transform="translate(18 22)"/>
                    <path stroke="#344154" stroke-linecap="round" stroke-width="1.181" d="M8.087 1.496H2.433c-.645 0-1.264.256-1.72.713C.256 2.665 0 3.284 0 3.929v8.394h49.685V3.937c.001-.646-.255-1.265-.711-1.722-.457-.456-1.076-.712-1.722-.711h-5.654" transform="translate(18 22)"/>
                    <path stroke="#FF6D3B" stroke-linecap="round" stroke-width="1.181" d="M14.079 17.654L14.079 22.701M21.256 17.654L21.256 22.701M28.433 17.654L28.433 22.701M35.61 17.654L35.61 22.701M14.079 30.012L14.079 35.063M21.256 30.012L21.256 35.063M28.433 30.012L28.433 35.063M35.61 30.012L35.61 35.063" transform="translate(18 22)"/>
                    <path stroke="#344154" stroke-linecap="round" stroke-width="1.181" d="M10.031 26.398L39.657 26.398" transform="translate(18 22)"/>
                    <path fill="#35B0CB" fill-rule="nonzero" d="M42.815 5.618c-.128 1.982-1.774 3.524-3.76 3.524-1.986 0-3.631-1.542-3.76-3.524H14.41c-.128 1.982-1.773 3.524-3.76 3.524-1.986 0-3.63-1.542-3.76-3.524H2.095v4.618H47.63V5.61l-4.815.008z" transform="translate(18 22)"/>
                </g>
            </g>
        </g>
    </g>
</svg>
