<svg xmlns="http://www.w3.org/2000/svg" width="85" height="85" viewBox="0 0 85 85">
    <g fill="none" fill-rule="evenodd">
        <g>
            <g transform="translate(-157 -469) translate(157 469)">
                <circle cx="42.5" cy="42.5" r="42.5" fill="#FFF"/>
                <g>
                    <path stroke="#344154" stroke-linecap="round" stroke-width="1.379" d="M35.508 23.007c-.002-7.1-4.762-13.316-11.615-15.17C17.04 5.983 9.795 8.953 6.214 15.083c-3.58 6.13-2.607 13.9 2.375 18.958 1.747 1.74 2.738 4.1 2.758 6.566v.06h16.85v-.06c-.015-2.412.935-4.73 2.64-6.437 2.99-2.945 4.673-6.966 4.671-11.163z" transform="translate(22 12)"/>
                    <path stroke="#FF6D3B" stroke-linecap="round" stroke-width="1.379" d="M8.85 21.986c.48-5.376 4.779-9.617 10.161-10.023.258 0 .525-.027.787-.027 2.672.005 5.25.986 7.25 2.758" transform="translate(22 12)"/>
                    <path stroke="#344154" stroke-linecap="round" stroke-width="1.379" d="M11.269 43.963L28.317 43.963M11.269 47.343h17.048v1.13c0 3.878-3.143 7.021-7.02 7.021H18.29c-3.878 0-7.021-3.143-7.021-7.02v-1.136.005zM17.274 55.646v.883c0 .668.265 1.309.738 1.781.472.473 1.113.738 1.781.738h0c1.392 0 2.52-1.128 2.52-2.52v-.891" transform="translate(22 12)"/>
                    <path fill="#35B0CB" fill-rule="nonzero" d="M14.515 36.97c-.429-1.414-1.093-2.746-1.963-3.94 10.317-.24 16.441-5.453 19.19-8.566-.322 2.69-1.547 5.189-3.475 7.09-1.516 1.503-2.623 3.367-3.219 5.416H14.515z" transform="translate(22 12)"/>
                    <path stroke="#FF6D3B" stroke-linecap="round" stroke-width="1.379" d="M19.793 3.605L19.793 0M13.154 4.92L11.922 1.531M7.366 8.428L5.048 5.664M3.126 13.701L0 11.894M26.432 4.92L27.664 1.531M32.221 8.428L34.538 5.664M36.46 13.701L39.586 11.894" transform="translate(22 12)"/>
                </g>
            </g>
        </g>
    </g>
</svg>
